SplineFontDB: 3.2
FontName: Xylem
FullName: Xylem
FamilyName: Xylem
Weight: Regular
Copyright: None
UComments: "2026-2-1: Created with FontForge (http://fontforge.org)"
Version: 001.000
ItalicAngle: 0
UnderlinePosition: -100
UnderlineWidth: 50
Ascent: 800
Descent: 200
InvalidEm: 0
LayerCount: 2
Layer: 0 0 "Back" 1
Layer: 1 0 "Fore" 0
XUID: [1021 514 1766212414 30766]
StyleMap: 0x0000
FSType: 0
OS2Version: 0
OS2_WeightWidthSlopeOnly: 0
OS2_UseTypoMetrics: 1
CreationTime: 1770000414
ModificationTime: 1770072796
PfmFamily: 17
TTFWeight: 400
TTFWidth: 5
LineGap: 90
VLineGap: 0
OS2TypoAscent: 0
OS2TypoAOffset: 1
OS2TypoDescent: 0
OS2TypoDOffset: 1
OS2TypoLinegap: 90
OS2WinAscent: 0
OS2WinAOffset: 1
OS2WinDescent: 0
OS2WinDOffset: 1
HheadAscent: 0
HheadAOffset: 1
HheadDescent: 0
HheadDOffset: 1
OS2Vendor: 'PfEd'
MarkAttachClasses: 1
DEI: 91125
LangName: 1033
Encoding: ISO8859-1
UnicodeInterp: none
NameList: AGL For New Fonts
DisplaySize: -128
AntiAlias: 1
FitToEm: 0
WidthSeparation: 150
WinInfo: 0 18 7
BeginPrivate: 0
EndPrivate
TeXData: 1 0 0 346030 173015 115343 471859 1048576 115343 783286 444596 497025 792723 393216 433062 380633 303038 157286 324010 404750 52429 2506097 1059062 262144
BeginChars: 256 62

StartChar: A
Encoding: 65 65 0
Width: 1137
Flags: HW
LayerCount: 2
Fore
SplineSet
732 363 m 1
 719 363 l 2
 521 363 604 180 432 180 c 2
 418 180 l 1
 406 181 387 182 366 182 c 0
 319 182 263 175 263 136 c 0
 263 133 263 130 264 126 c 0
 267 112 294 85 310 85 c 2
 683 85 l 2
 700 85 731 60 731 44 c 0
 731 24 704 -3 683 -3 c 2
 293 -3 l 2
 160 -3 61 98 61 225 c 0
 61 349 162 450 295 450 c 2
 841 450 l 2
 958 450 1064 359 1066 240 c 2
 1069 104 l 2
 1070 41 1020 -2 967 -2 c 2
 962 -2 l 1
 868 3 866 77 866 169 c 2
 866 185 l 2
 866 218 865 253 861 287 c 0
 852 354 783 361 732 363 c 1
EndSplineSet
EndChar

StartChar: B
Encoding: 66 66 1
Width: 1137
Flags: HW
LayerCount: 2
Fore
SplineSet
323 225 m 1
 376 225 418 192 441 150 c 0
 471 93 523 81 584 81 c 0
 613 81 644 84 676 86 c 0
 749 91 796 160 796 223 c 0
 796 226 796 229 796 232 c 0
 790 306 731 360 653 360 c 2
 115 360 l 2
 102 360 76 377 69 388 c 0
 66 392 65 400 65 409 c 0
 65 423 69 440 76 447 c 2
 274 645 l 2
 284 655 307 662 322 662 c 0
 325 662 328 662 330 661 c 0
 344 656 366 628 366 613 c 2
 366 499 l 2
 366 479 391 449 414 449 c 2
 835 449 l 2
 964 449 1065 358 1071 233 c 0
 1071 229 1071 226 1071 222 c 0
 1071 108 980 -2 853 -2 c 2
 167 -2 l 2
 104 -2 64 62 64 113 c 0
 64 115 64 118 64 120 c 0
 69 177 115 223 182 224 c 2
 323 226 l 1
 323 225 l 1
EndSplineSet
EndChar

StartChar: C
Encoding: 67 67 2
Width: 1131
Flags: HW
LayerCount: 2
Fore
SplineSet
525 363 m 2
 523 363 521 363 520 363 c 0
 432 363 359 338 338 254 c 0
 336 245 335 235 335 225 c 0
 335 160 382 87 460 86 c 2
 682 83 l 2
 700 83 732 58 732 42 c 0
 732 24 703 -4 684 -4 c 2
 282 -3 l 2
 155 -3 61 104 61 224 c 0
 61 226 61 229 61 231 c 0
 65 353 166 450 297 450 c 2
 951 450 l 2
 1015 450 1064 397 1068 344 c 0
 1068 342 1068 339 1068 337 c 0
 1068 277 1022 221 958 220 c 2
 804 219 l 2
 766 219 716 246 701 279 c 0
 666 357 609 362 526 363 c 2
 525 363 l 2
EndSplineSet
EndChar

StartChar: D
Encoding: 68 68 3
Width: 1128
Flags: HW
LayerCount: 2
Fore
SplineSet
588 86 m 2
 589 86 l 0
 704 86 683 227 801 227 c 2
 951 227 l 2
 1021 227 1068 172 1068 114 c 0
 1068 105 1066 -2 939 -2 c 2
 302 -2 l 2
 172 -2 69 83 61 211 c 0
 61 215 61 219 61 224 c 0
 61 335 148 447 272 448 c 2
 751 453 l 1
 764 481 766 511 766 541 c 0
 766 554 766 568 766 580 c 0
 766 613 769 642 791 657 c 0
 797 661 804 662 813 662 c 0
 830 662 851 655 863 643 c 2
 1050 456 l 2
 1060 446 1067 422 1067 407 c 0
 1067 404 1066 402 1066 400 c 0
 1062 385 1032 362 1015 362 c 2
 476 362 l 2
 398 362 340 306 335 232 c 0
 335 229 335 226 335 223 c 0
 335 156 389 88 466 87 c 2
 588 86 l 2
EndSplineSet
EndChar

StartChar: E
Encoding: 69 69 4
Width: 1132
Flags: HW
LayerCount: 2
Fore
SplineSet
834 361 m 0
 796 362 762 364 731 364 c 0
 655 364 602 350 564 268 c 0
 534 204 488 180 421 180 c 2
 305 181 l 2
 288 181 264 149 264 130 c 0
 264 110 293 85 320 85 c 2
 686 86 l 2
 702 86 731 60 731 44 c 0
 731 27 705 -2 686 -2 c 2
 283 -1 l 2
 156 -1 61 105 61 226 c 0
 61 337 152 450 277 450 c 2
 940 450 l 2
 1016 450 1068 380 1068 316 c 0
 1068 245 1014 181 933 181 c 2
 683 181 l 2
 666 181 641 209 641 224 c 0
 641 239 667 268 685 268 c 2
 810 267 l 2
 828 267 859 287 865 302 c 0
 866 304 866 307 866 310 c 0
 866 329 850 360 834 361 c 0
EndSplineSet
EndChar

StartChar: F
Encoding: 70 70 5
Width: 795
Flags: HW
LayerCount: 2
Fore
SplineSet
743 414 m 0
 744 409 745 404 745 400 c 0
 745 332 579 426 513 274 c 0
 458 147 343 204 293 175 c 0
 259 156 305 15 183 4 c 0
 180 4 177 4 174 4 c 0
 119 4 73 47 73 108 c 2
 73 408 l 2
 73 548 181 638 314 638 c 2
 691 637 l 2
 708 637 742 615 742 598 c 0
 742 580 718 549 700 549 c 2
 324 549 l 2
 300 549 276 524 276 503 c 0
 276 481 299 456 325 456 c 2
 699 455 l 2
 715 455 740 429 743 414 c 0
EndSplineSet
EndChar

StartChar: G
Encoding: 71 71 6
Width: 1133
Flags: HW
LayerCount: 2
Fore
SplineSet
860 101 m 1
 831 116 800 119 769 119 c 0
 749 119 728 118 708 118 c 0
 651 118 597 128 559 211 c 0
 543 245 500 298 459 298 c 2
 296 300 l 2
 280 300 261 266 261 250 c 0
 261 235 289 206 305 206 c 2
 444 205 l 2
 460 205 486 176 486 161 c 0
 486 146 462 118 445 118 c 2
 173 121 l 2
 102 122 59 195 59 254 c 0
 59 256 59 258 59 260 c 0
 62 324 115 388 189 388 c 2
 852 386 l 2
 971 386 1066 278 1066 166 c 2
 1065 -28 l 2
 1065 -153 957 -247 834 -247 c 2
 444 -247 l 2
 424 -247 396 -221 396 -202 c 0
 396 -184 422 -159 444 -159 c 2
 793 -160 l 2
 855 -160 868 -121 868 -66 c 0
 868 -24 860 26 860 76 c 0
 860 85 861 93 861 101 c 1
 860 101 l 1
EndSplineSet
EndChar

StartChar: H
Encoding: 72 72 7
Width: 1147
Flags: HW
LayerCount: 2
Fore
SplineSet
1005 0 m 2
 642 208 l 1
 540 348 580 358 400 362 c 0
 398 362 395 362 393 362 c 0
 177 362 353 122 170 122 c 0
 103 122 67 174 67 241 c 0
 67 245 67 250 67 254 c 0
 72 327 57 408 109 469 c 0
 162 531 240 606 293 655 c 0
 299 660 310 662 320 662 c 0
 333 662 346 659 350 654 c 0
 369 631 372 608 372 581 c 0
 372 566 371 550 371 533 c 0
 371 509 373 482 382 452 c 1
 857 447 l 2
 983 446 1077 339 1077 218 c 2
 1077 51 l 2
 1077 33 1054 -5 1024 -5 c 0
 1018 -5 1012 -4 1005 0 c 2
EndSplineSet
EndChar

StartChar: I
Encoding: 73 73 8
Width: 342
Flags: HW
LayerCount: 2
Fore
SplineSet
69 562 m 0
 69 618 114 662 170 662 c 0
 226 662 271 618 271 562 c 0
 271 506 226 461 170 461 c 0
 114 461 69 506 69 562 c 0
272 108 m 1
 273 42 230 0 177 -3 c 0
 175 -3 173 -3 171 -3 c 0
 116 -3 69 39 69 102 c 2
 69 265 l 2
 69 324 115 363 164 365 c 0
 166 365 168 365 170 365 c 0
 225 365 270 323 270 263 c 2
 271 108 l 1
 272 108 l 1
EndSplineSet
EndChar

StartChar: J
Encoding: 74 74 9
Width: 486
Flags: HW
LayerCount: 2
Fore
SplineSet
216 500 m 0
 216 555 261 600 316 600 c 0
 371 600 417 555 417 500 c 0
 417 445 371 399 316 399 c 0
 261 399 216 445 216 500 c 0
79 -250 m 2
 78 -250 l 0
 60 -250 32 -221 32 -205 c 0
 32 -189 60 -160 78 -160 c 2
 169 -160 l 2
 185 -160 216 -132 216 -116 c 2
 217 211 l 2
 217 267 270 302 319 302 c 0
 320 302 322 302 323 302 c 0
 377 299 417 259 417 198 c 2
 416 -28 l 2
 415 -142 325 -241 210 -245 c 2
 79 -250 l 2
EndSplineSet
EndChar

StartChar: K
Encoding: 75 75 10
Width: 1144
Flags: HW
LayerCount: 2
Fore
SplineSet
644 215 m 1
 552 339 l 2
 539 357 479 370 420 370 c 0
 372 370 324 362 299 342 c 0
 238 293 312 139 174 130 c 0
 172 130 169 130 167 130 c 0
 116 130 67 169 67 229 c 2
 67 356 l 2
 67 401 106 454 155 454 c 2
 370 455 l 2
 507 456 447 638 688 638 c 0
 689 638 691 638 692 638 c 2
 871 636 l 2
 886 636 918 616 918 597 c 0
 918 574 892 550 870 550 c 2
 702 551 l 2
 674 551 647 525 647 506 c 0
 647 488 671 456 688 456 c 2
 843 456 l 2
 969 456 1074 361 1074 229 c 2
 1074 55 l 2
 1074 41 1055 13 1043 9 c 0
 1038 7 1031 7 1023 7 c 0
 1011 7 999 8 992 12 c 2
 644 215 l 1
EndSplineSet
EndChar

StartChar: L
Encoding: 76 76 11
Width: 496
Flags: HW
LayerCount: 2
Fore
SplineSet
404 4 m 2
 288 6 l 2
 171 7 69 103 69 222 c 2
 69 546 l 2
 69 601 126 638 168 638 c 0
 169 638 170 638 171 638 c 0
 232 635 270 590 270 530 c 2
 272 114 l 1
 326 67 438 120 452 60 c 0
 453 57 453 55 453 52 c 0
 453 28 428 4 404 4 c 2
EndSplineSet
EndChar

StartChar: M
Encoding: 77 77 12
Width: 1148
Flags: HW
LayerCount: 2
Fore
SplineSet
892 175 m 2
 892 151 869 123 849 123 c 0
 848 123 l 0
 808 125 804 155 804 194 c 0
 804 205 804 217 804 228 c 0
 804 256 802 285 790 311 c 0
 770 353 731 362 690 362 c 0
 676 362 663 361 650 360 c 0
 546 350 560 242 463 187 c 2
 148 6 l 2
 141 2 129 0 117 0 c 0
 107 0 98 2 93 4 c 0
 82 9 67 35 67 48 c 2
 70 247 l 2
 72 372 187 450 304 450 c 2
 967 449 l 2
 1021 449 1074 412 1074 353 c 2
 1075 170 l 2
 1075 154 1051 125 1035 124 c 0
 1034 124 1033 124 1032 124 c 0
 1011 124 986 148 986 171 c 2
 987 315 l 2
 987 331 962 359 946 361 c 0
 945 361 944 361 942 361 c 0
 920 361 891 337 891 315 c 2
 892 175 l 2
EndSplineSet
EndChar

StartChar: N
Encoding: 78 78 13
Width: 1145
Flags: HW
LayerCount: 2
Fore
SplineSet
642 210 m 1
 557 330 l 2
 541 353 483 364 426 364 c 0
 377 364 328 356 305 340 c 0
 235 292 317 144 182 125 c 0
 177 124 173 124 168 124 c 0
 116 124 67 165 67 227 c 2
 67 347 l 2
 67 408 115 450 175 450 c 2
 850 450 l 2
 976 450 1075 348 1075 224 c 2
 1075 50 l 2
 1075 39 1064 17 1057 10 c 0
 1051 4 1033 0 1018 0 c 0
 1011 0 1004 1 1000 3 c 2
 642 210 l 1
EndSplineSet
EndChar

StartChar: O
Encoding: 79 79 14
Width: 1134
Flags: HW
LayerCount: 2
Fore
SplineSet
670 88 m 0
 748 92 794 163 794 224 c 0
 794 226 794 228 794 230 c 0
 789 343 691 364 585 364 c 0
 539 364 492 360 450 358 c 0
 379 355 335 284 335 223 c 0
 335 218 335 212 336 207 c 0
 350 102 436 82 536 82 c 0
 580 82 626 86 670 88 c 0
844 -1 m 1
 300 -3 l 2
 299 -3 299 -3 298 -3 c 0
 170 -3 72 84 62 207 c 0
 61 213 61 220 61 226 c 0
 61 342 149 447 275 448 c 2
 837 450 l 2
 966 450 1065 352 1068 230 c 0
 1068 228 1068 226 1068 224 c 0
 1068 105 977 -1 843 -2 c 1
 844 -1 l 1
EndSplineSet
EndChar

StartChar: P
Encoding: 80 80 15
Width: 1133
Flags: HW
LayerCount: 2
Fore
SplineSet
85 -14 m 2
 71 0 60 23 60 40 c 0
 60 43 61 46 62 49 c 0
 68 64 100 86 117 86 c 2
 643 84 l 2
 725 84 789 143 793 218 c 0
 793 220 793 223 793 225 c 0
 793 298 735 361 655 362 c 2
 542 363 l 2
 541 363 l 0
 417 363 451 222 321 222 c 0
 320 222 l 2
 181 223 l 2
 106 223 60 278 60 337 c 0
 60 392 105 450 171 450 c 2
 855 449 l 2
 977 449 1064 339 1067 231 c 0
 1067 229 1067 226 1067 224 c 0
 1067 111 978 2 857 1 c 2
 405 -2 l 2
 387 -2 362 -32 362 -49 c 2
 362 -163 l 2
 362 -177 344 -205 332 -211 c 0
 328 -213 323 -214 317 -214 c 0
 301 -214 279 -207 271 -199 c 2
 85 -14 l 2
EndSplineSet
EndChar

StartChar: Q
Encoding: 81 81 16
Width: 1133
Flags: HW
LayerCount: 2
Fore
SplineSet
658 87 m 1
 742 87 794 155 794 223 c 0
 794 225 794 227 794 229 c 0
 791 302 733 362 653 362 c 0
 652 362 652 362 651 362 c 2
 464 360 l 2
 386 359 335 292 335 224 c 0
 335 222 335 220 335 218 c 0
 338 148 396 86 475 86 c 2
 658 86 l 1
 658 87 l 1
779 -161 m 2
 779 -175 763 -204 752 -210 c 0
 748 -212 741 -213 734 -213 c 0
 718 -213 698 -209 690 -201 c 2
 488 -2 l 1
 301 -2 l 2
 167 -2 65 90 61 218 c 0
 61 220 61 223 61 225 c 0
 61 345 159 450 288 450 c 2
 838 450 l 2
 969 450 1067 348 1067 225 c 0
 1067 223 1067 220 1067 218 c 0
 1063 94 968 -2 834 -2 c 0
 831 -2 827 -2 824 -2 c 0
 823 -2 l 0
 807 -2 779 -31 779 -47 c 2
 779 -161 l 2
EndSplineSet
EndChar

StartChar: R
Encoding: 82 82 17
Width: 787
Flags: HW
LayerCount: 2
Fore
SplineSet
507 269 m 0
 450 138 322 201 287 169 c 0
 249 135 298 6 171 -1 c 0
 169 -1 167 -1 166 -1 c 0
 114 -1 67 41 67 101 c 2
 67 223 l 2
 67 354 171 450 300 450 c 2
 690 449 l 2
 710 449 737 424 737 407 c 0
 737 313 577 430 507 269 c 0
EndSplineSet
EndChar

StartChar: S
Encoding: 83 83 18
Width: 1126
Flags: HW
LayerCount: 2
Fore
SplineSet
935 -3 m 2
 102 -3 l 2
 87 -3 61 26 61 40 c 0
 61 57 85 84 105 84 c 2
 482 84 l 2
 498 84 528 114 528 131 c 0
 528 150 504 180 484 180 c 2
 183 182 l 2
 110 183 62 254 62 313 c 0
 62 316 62 319 62 322 c 0
 69 402 128 450 206 450 c 2
 683 450 l 2
 700 450 731 424 731 408 c 0
 731 388 706 363 684 363 c 2
 317 364 l 2
 297 364 264 341 264 319 c 0
 264 292 289 268 319 268 c 2
 930 268 l 2
 1010 268 1068 206 1068 132 c 0
 1068 68 1018 -3 935 -3 c 2
EndSplineSet
EndChar

StartChar: T
Encoding: 84 84 19
Width: 791
Flags: HW
LayerCount: 2
Fore
SplineSet
689 362 m 0
 678 363 667 364 657 364 c 0
 485 364 538 177 379 177 c 0
 370 177 360 178 349 179 c 0
 343 180 338 180 333 180 c 0
 225 180 325 5 178 -4 c 0
 176 -4 175 -4 173 -4 c 0
 117 -4 71 43 71 104 c 2
 71 331 l 2
 71 396 94 457 139 502 c 2
 283 646 l 2
 292 655 315 663 330 663 c 0
 333 663 336 663 338 662 c 0
 351 658 374 629 374 615 c 2
 374 503 l 2
 374 479 399 447 424 447 c 2
 702 448 l 2
 718 448 742 417 742 400 c 0
 742 383 709 362 691 362 c 0
 690 362 690 362 689 362 c 0
EndSplineSet
EndChar

StartChar: U
Encoding: 85 85 20
Width: 1140
Flags: HW
LayerCount: 2
Fore
SplineSet
729 82 m 0
 786 83 856 96 862 161 c 0
 874 297 835 445 965 449 c 0
 966 449 967 449 969 449 c 0
 1016 449 1068 412 1068 354 c 2
 1068 219 l 2
 1068 97 966 -3 843 -3 c 2
 274 -2 l 2
 149 -2 61 114 61 223 c 0
 61 346 158 450 296 450 c 2
 686 450 l 2
 701 450 732 423 732 406 c 0
 732 388 706 364 686 364 c 2
 308 363 l 2
 290 363 263 330 263 312 c 0
 263 290 293 267 318 267 c 2
 457 265 l 2
 583 263 534 82 723 82 c 0
 725 82 727 82 729 82 c 0
EndSplineSet
EndChar

StartChar: V
Encoding: 86 86 21
Width: 1148
Flags: HW
LayerCount: 2
Fore
SplineSet
839 110 m 0
 909 161 833 290 946 321 c 0
 956 324 966 325 977 325 c 0
 1018 325 1064 304 1071 256 c 0
 1076 228 1080 191 1080 154 c 0
 1080 77 1060 -1 973 -1 c 2
 312 -1 l 2
 183 -1 71 86 70 222 c 2
 69 396 l 2
 69 408 81 432 88 440 c 0
 93 446 110 450 125 450 c 0
 134 450 144 448 149 445 c 2
 497 243 l 2
 527 225 550 169 569 141 c 0
 599 98 661 83 718 83 c 0
 770 83 819 95 839 110 c 0
EndSplineSet
EndChar

StartChar: W
Encoding: 87 87 22
Width: 1149
Flags: HW
LayerCount: 2
Fore
SplineSet
988 126 m 2
 990 284 l 2
 990 302 1018 327 1034 327 c 0
 1035 327 l 0
 1051 326 1077 300 1077 285 c 2
 1077 98 l 2
 1077 47 1032 -1 978 -1 c 2
 287 0 l 2
 161 0 69 112 69 231 c 2
 69 397 l 2
 69 408 78 429 85 437 c 0
 92 444 115 450 131 450 c 0
 137 450 141 450 144 448 c 2
 492 247 l 2
 524 229 544 182 563 150 c 0
 588 109 640 84 689 84 c 0
 726 84 762 97 786 127 c 0
 804 149 807 182 807 214 c 0
 807 227 806 240 806 252 c 0
 806 293 811 326 849 326 c 0
 875 326 895 300 895 273 c 2
 895 132 l 2
 895 115 923 89 938 86 c 0
 939 86 940 86 941 86 c 0
 957 86 988 109 988 126 c 2
EndSplineSet
EndChar

StartChar: X
Encoding: 88 88 23
Width: 1111
Flags: HW
LayerCount: 2
Fore
SplineSet
903 289 m 2
 900 287 896 287 891 287 c 0
 872 287 844 298 842 310 c 0
 842 312 841 314 841 317 c 0
 841 333 850 360 863 367 c 2
 989 438 l 2
 992 440 998 441 1003 441 c 0
 1019 441 1041 434 1047 427 c 0
 1050 423 1052 416 1052 408 c 0
 1052 392 1046 372 1036 366 c 2
 903 289 l 2
398 -2 m 2
 393 -5 387 -6 380 -6 c 0
 366 -6 350 -1 345 5 c 0
 341 10 338 21 338 32 c 0
 338 47 342 64 351 69 c 2
 559 197 l 1
 467 258 398 301 308 343 c 0
 280 356 245 359 211 359 c 0
 183 359 154 357 129 357 c 0
 87 357 54 363 46 393 c 0
 46 395 45 396 45 398 c 0
 45 417 62 450 96 450 c 0
 167 450 237 453 307 453 c 0
 388 453 469 449 554 433 c 0
 721 402 844 258 997 186 c 0
 1035 168 1054 132 1054 95 c 0
 1054 75 1048 56 1037 39 c 0
 1017 8 988 -6 956 -6 c 0
 934 -6 911 0 889 13 c 2
 656 146 l 1
 398 -2 l 2
EndSplineSet
EndChar

StartChar: Y
Encoding: 89 89 24
Width: 1146
Flags: HW
LayerCount: 2
Fore
SplineSet
1078 195 m 0
 1064 -32 1077 16 870 -195 c 0
 860 -205 836 -213 818 -213 c 0
 812 -213 807 -212 803 -210 c 0
 778 -197 774 -167 774 -133 c 0
 774 -118 774 -102 774 -86 c 0
 774 -55 772 -26 756 -3 c 1
 294 0 l 2
 180 1 74 90 72 207 c 2
 69 397 l 2
 69 407 79 430 86 438 c 0
 92 445 112 450 128 450 c 0
 135 450 141 449 145 447 c 2
 485 250 l 2
 565 203 540 83 707 83 c 0
 715 83 724 83 733 84 c 0
 767 86 808 89 837 108 c 0
 859 122 875 168 875 201 c 0
 875 202 875 204 875 206 c 0
 875 210 875 213 875 217 c 0
 875 284 916 325 978 325 c 0
 981 325 983 325 986 325 c 0
 1044 321 1078 271 1078 206 c 0
 1078 202 1078 199 1078 195 c 0
EndSplineSet
EndChar

StartChar: Z
Encoding: 90 90 25
Width: 1120
Flags: HW
LayerCount: 2
Fore
SplineSet
1034 -3 m 2
 96 -3 l 2
 84 -3 56 21 56 45 c 0
 56 115 161 41 227 179 c 0
 256 240 306 269 373 269 c 0
 374 269 375 269 376 269 c 2
 479 267 l 2
 497 267 528 293 528 314 c 0
 528 337 502 364 477 364 c 2
 99 364 l 2
 85 364 57 386 57 403 c 0
 57 422 78 450 100 450 c 2
 1026 450 l 2
 1040 450 1064 424 1065 411 c 0
 1065 408 1066 405 1066 403 c 0
 1066 337 958 402 896 273 c 0
 877 234 834 184 788 183 c 2
 647 180 l 2
 624 180 593 159 593 135 c 0
 593 107 621 83 650 83 c 2
 1016 84 l 2
 1033 84 1064 66 1064 48 c 0
 1064 32 1049 -3 1034 -3 c 2
EndSplineSet
EndChar

StartChar: a
Encoding: 97 97 26
Width: 1137
Flags: HW
LayerCount: 2
Fore
SplineSet
732 363 m 0
 728 363 724 363 719 363 c 0
 521 363 604 180 432 180 c 0
 427 180 423 180 418 180 c 0
 406 181 387 182 366 182 c 0
 319 182 263 175 263 136 c 0
 263 133 263 130 264 126 c 0
 267 112 294 85 310 85 c 2
 683 85 l 2
 700 85 731 60 731 44 c 0
 731 24 704 -3 683 -3 c 2
 293 -3 l 2
 160 -3 61 98 61 225 c 0
 61 349 162 450 295 450 c 2
 841 450 l 2
 958 450 1064 359 1066 240 c 2
 1069 104 l 2
 1070 41 1020 -2 967 -2 c 0
 966 -2 964 -2 962 -2 c 0
 868 3 866 77 866 169 c 0
 866 174 866 180 866 185 c 0
 866 218 865 253 861 287 c 0
 852 354 783 361 732 363 c 0
EndSplineSet
EndChar

StartChar: b
Encoding: 98 98 27
Width: 1137
Flags: HW
LayerCount: 2
Fore
SplineSet
323 225 m 1
 376 225 418 192 441 150 c 0
 471 93 523 81 584 81 c 0
 613 81 644 84 676 86 c 0
 749 91 796 160 796 223 c 0
 796 226 796 229 796 232 c 0
 790 306 731 360 653 360 c 2
 115 360 l 2
 102 360 76 377 69 388 c 0
 66 392 65 400 65 409 c 0
 65 423 69 440 76 447 c 2
 274 645 l 2
 284 655 307 662 322 662 c 0
 325 662 328 662 330 661 c 0
 344 656 366 628 366 613 c 2
 366 499 l 2
 366 479 391 449 414 449 c 2
 835 449 l 2
 964 449 1065 358 1071 233 c 0
 1071 229 1071 226 1071 222 c 0
 1071 108 980 -2 853 -2 c 2
 167 -2 l 2
 104 -2 64 62 64 113 c 0
 64 115 64 118 64 120 c 0
 69 177 115 223 182 224 c 2
 323 226 l 1
 323 225 l 1
EndSplineSet
EndChar

StartChar: c
Encoding: 99 99 28
Width: 1131
Flags: HW
LayerCount: 2
Fore
SplineSet
525 363 m 2
 523 363 521 363 520 363 c 0
 432 363 359 338 338 254 c 0
 336 245 335 235 335 225 c 0
 335 160 382 87 460 86 c 2
 682 83 l 2
 700 83 732 58 732 42 c 0
 732 24 703 -4 684 -4 c 2
 282 -3 l 2
 155 -3 61 104 61 224 c 0
 61 226 61 229 61 231 c 0
 65 353 166 450 297 450 c 2
 951 450 l 2
 1015 450 1064 397 1068 344 c 0
 1068 342 1068 339 1068 337 c 0
 1068 277 1022 221 958 220 c 2
 804 219 l 2
 766 219 716 246 701 279 c 0
 666 357 609 362 526 363 c 2
 525 363 l 2
EndSplineSet
EndChar

StartChar: d
Encoding: 100 100 29
Width: 1128
Flags: HW
LayerCount: 2
Fore
SplineSet
588 86 m 2
 589 86 l 0
 704 86 683 227 801 227 c 2
 951 227 l 2
 1021 227 1068 172 1068 114 c 0
 1068 105 1066 -2 939 -2 c 2
 302 -2 l 2
 172 -2 69 83 61 211 c 0
 61 215 61 219 61 224 c 0
 61 335 148 447 272 448 c 2
 751 453 l 1
 764 481 766 511 766 541 c 0
 766 554 766 568 766 580 c 0
 766 613 769 642 791 657 c 0
 797 661 804 662 813 662 c 0
 830 662 851 655 863 643 c 2
 1050 456 l 2
 1060 446 1067 422 1067 407 c 0
 1067 404 1066 402 1066 400 c 0
 1062 385 1032 362 1015 362 c 2
 476 362 l 2
 398 362 340 306 335 232 c 0
 335 229 335 226 335 223 c 0
 335 156 389 88 466 87 c 2
 588 86 l 2
EndSplineSet
EndChar

StartChar: e
Encoding: 101 101 30
Width: 1132
Flags: HW
LayerCount: 2
Fore
SplineSet
834 361 m 0
 796 362 762 364 731 364 c 0
 655 364 602 350 564 268 c 0
 534 204 488 180 421 180 c 2
 305 181 l 2
 288 181 264 149 264 130 c 0
 264 110 293 85 320 85 c 2
 686 86 l 2
 702 86 731 60 731 44 c 0
 731 27 705 -2 686 -2 c 2
 283 -1 l 2
 156 -1 61 105 61 226 c 0
 61 337 152 450 277 450 c 2
 940 450 l 2
 1016 450 1068 380 1068 316 c 0
 1068 245 1014 181 933 181 c 2
 683 181 l 2
 666 181 641 209 641 224 c 0
 641 239 667 268 685 268 c 2
 810 267 l 2
 828 267 859 287 865 302 c 0
 866 304 866 307 866 310 c 0
 866 329 850 360 834 361 c 0
EndSplineSet
EndChar

StartChar: f
Encoding: 102 102 31
Width: 795
Flags: HW
LayerCount: 2
Fore
SplineSet
743 414 m 0
 744 409 745 404 745 400 c 0
 745 332 579 426 513 274 c 0
 458 147 343 204 293 175 c 0
 259 156 305 15 183 4 c 0
 180 4 177 4 174 4 c 0
 119 4 73 47 73 108 c 2
 73 408 l 2
 73 548 181 638 314 638 c 2
 691 637 l 2
 708 637 742 615 742 598 c 0
 742 580 718 549 700 549 c 2
 324 549 l 2
 300 549 276 524 276 503 c 0
 276 481 299 456 325 456 c 2
 699 455 l 2
 715 455 740 429 743 414 c 0
EndSplineSet
EndChar

StartChar: g
Encoding: 103 103 32
Width: 1133
Flags: HW
LayerCount: 2
Fore
SplineSet
860 101 m 1
 831 116 800 119 769 119 c 0
 749 119 728 118 708 118 c 0
 651 118 597 128 559 211 c 0
 543 245 500 298 459 298 c 2
 296 300 l 2
 280 300 261 266 261 250 c 0
 261 235 289 206 305 206 c 2
 444 205 l 2
 460 205 486 176 486 161 c 0
 486 146 462 118 445 118 c 2
 173 121 l 2
 102 122 59 195 59 254 c 0
 59 256 59 258 59 260 c 0
 62 324 115 388 189 388 c 2
 852 386 l 2
 971 386 1066 278 1066 166 c 2
 1065 -28 l 2
 1065 -153 957 -247 834 -247 c 2
 444 -247 l 2
 424 -247 396 -221 396 -202 c 0
 396 -184 422 -159 444 -159 c 2
 793 -160 l 2
 855 -160 868 -121 868 -66 c 0
 868 -24 860 26 860 76 c 0
 860 85 861 93 861 101 c 1
 860 101 l 1
EndSplineSet
EndChar

StartChar: h
Encoding: 104 104 33
Width: 1147
Flags: HW
LayerCount: 2
Fore
SplineSet
1005 0 m 2
 642 208 l 1
 540 348 580 358 400 362 c 0
 398 362 395 362 393 362 c 0
 177 362 353 122 170 122 c 0
 103 122 67 174 67 241 c 0
 67 245 67 250 67 254 c 0
 72 327 57 408 109 469 c 0
 162 531 240 606 293 655 c 0
 299 660 310 662 320 662 c 0
 333 662 346 659 350 654 c 0
 369 631 372 608 372 581 c 0
 372 566 371 550 371 533 c 0
 371 509 373 482 382 452 c 1
 857 447 l 2
 983 446 1077 339 1077 218 c 2
 1077 51 l 2
 1077 33 1054 -5 1024 -5 c 0
 1018 -5 1012 -4 1005 0 c 2
EndSplineSet
EndChar

StartChar: i
Encoding: 105 105 34
Width: 342
Flags: HW
LayerCount: 2
Fore
SplineSet
69 562 m 0
 69 618 114 662 170 662 c 0
 226 662 271 618 271 562 c 0
 271 506 226 461 170 461 c 0
 114 461 69 506 69 562 c 0
272 108 m 1
 273 42 230 0 177 -3 c 0
 175 -3 173 -3 171 -3 c 0
 116 -3 69 39 69 102 c 2
 69 265 l 2
 69 324 115 363 164 365 c 0
 166 365 168 365 170 365 c 0
 225 365 270 323 270 263 c 2
 271 108 l 1
 272 108 l 1
EndSplineSet
EndChar

StartChar: j
Encoding: 106 106 35
Width: 486
Flags: HW
LayerCount: 2
Fore
SplineSet
216 500 m 0
 216 555 261 600 316 600 c 0
 371 600 417 555 417 500 c 0
 417 445 371 399 316 399 c 0
 261 399 216 445 216 500 c 0
79 -250 m 2
 78 -250 l 0
 60 -250 32 -221 32 -205 c 0
 32 -189 60 -160 78 -160 c 2
 169 -160 l 2
 185 -160 216 -132 216 -116 c 2
 217 211 l 2
 217 267 270 302 319 302 c 0
 320 302 322 302 323 302 c 0
 377 299 417 259 417 198 c 2
 416 -28 l 2
 415 -142 325 -241 210 -245 c 2
 79 -250 l 2
EndSplineSet
EndChar

StartChar: k
Encoding: 107 107 36
Width: 1144
Flags: HW
LayerCount: 2
Fore
SplineSet
644 215 m 1
 552 339 l 2
 539 357 479 370 420 370 c 0
 372 370 324 362 299 342 c 0
 238 293 312 139 174 130 c 0
 172 130 169 130 167 130 c 0
 116 130 67 169 67 229 c 2
 67 356 l 2
 67 401 106 454 155 454 c 2
 370 455 l 2
 507 456 447 638 688 638 c 0
 689 638 691 638 692 638 c 2
 871 636 l 2
 886 636 918 616 918 597 c 0
 918 574 892 550 870 550 c 2
 702 551 l 2
 674 551 647 525 647 506 c 0
 647 488 671 456 688 456 c 2
 843 456 l 2
 969 456 1074 361 1074 229 c 2
 1074 55 l 2
 1074 41 1055 13 1043 9 c 0
 1038 7 1031 7 1023 7 c 0
 1011 7 999 8 992 12 c 2
 644 215 l 1
EndSplineSet
EndChar

StartChar: l
Encoding: 108 108 37
Width: 496
Flags: HW
LayerCount: 2
Fore
SplineSet
404 4 m 2
 288 6 l 2
 171 7 69 103 69 222 c 2
 69 546 l 2
 69 601 126 638 168 638 c 0
 169 638 170 638 171 638 c 0
 232 635 270 590 270 530 c 2
 272 114 l 1
 326 67 438 120 452 60 c 0
 453 57 453 55 453 52 c 0
 453 28 428 4 404 4 c 2
EndSplineSet
EndChar

StartChar: m
Encoding: 109 109 38
Width: 1148
Flags: HW
LayerCount: 2
Fore
SplineSet
892 175 m 2
 892 151 869 123 849 123 c 0
 848 123 l 0
 808 125 804 155 804 194 c 0
 804 205 804 217 804 228 c 0
 804 256 802 285 790 311 c 0
 770 353 731 362 690 362 c 0
 676 362 663 361 650 360 c 0
 546 350 564 245 463 187 c 2
 148 6 l 2
 141 2 129 0 117 0 c 0
 107 0 98 2 93 4 c 0
 82 9 67 35 67 48 c 2
 70 247 l 2
 72 372 187 450 304 450 c 2
 967 449 l 2
 1021 449 1074 412 1074 353 c 2
 1075 170 l 2
 1075 154 1051 125 1035 124 c 0
 1034 124 1033 124 1032 124 c 0
 1011 124 986 148 986 171 c 2
 987 315 l 2
 987 331 962 359 946 361 c 0
 945 361 944 361 942 361 c 0
 920 361 891 337 891 315 c 2
 892 175 l 2
EndSplineSet
EndChar

StartChar: n
Encoding: 110 110 39
Width: 1145
Flags: HW
LayerCount: 2
Fore
SplineSet
642 210 m 1
 557 330 l 2
 541 353 483 364 426 364 c 0
 377 364 328 356 305 340 c 0
 235 292 317 144 182 125 c 0
 177 124 173 124 168 124 c 0
 116 124 67 165 67 227 c 2
 67 347 l 2
 67 408 115 450 175 450 c 2
 850 450 l 2
 976 450 1075 348 1075 224 c 2
 1075 50 l 2
 1075 39 1064 17 1057 10 c 0
 1051 4 1033 0 1018 0 c 0
 1011 0 1004 1 1000 3 c 2
 642 210 l 1
EndSplineSet
EndChar

StartChar: o
Encoding: 111 111 40
Width: 1134
Flags: HW
LayerCount: 2
Fore
SplineSet
670 88 m 0
 748 92 794 163 794 224 c 0
 794 226 794 228 794 230 c 0
 789 343 691 364 585 364 c 0
 539 364 492 360 450 358 c 0
 379 355 335 284 335 223 c 0
 335 218 335 212 336 207 c 0
 350 102 436 82 536 82 c 0
 580 82 626 86 670 88 c 0
844 -1 m 1
 300 -3 l 2
 299 -3 299 -3 298 -3 c 0
 170 -3 72 84 62 207 c 0
 61 213 61 220 61 226 c 0
 61 342 149 447 275 448 c 2
 837 450 l 2
 966 450 1065 352 1068 230 c 0
 1068 228 1068 226 1068 224 c 0
 1068 105 977 -1 843 -2 c 1
 844 -1 l 1
EndSplineSet
EndChar

StartChar: p
Encoding: 112 112 41
Width: 1133
Flags: HW
LayerCount: 2
Fore
SplineSet
85 -14 m 2
 71 0 60 23 60 40 c 0
 60 43 61 46 62 49 c 0
 68 64 100 86 117 86 c 2
 643 84 l 2
 725 84 789 143 793 218 c 0
 793 220 793 223 793 225 c 0
 793 298 735 361 655 362 c 2
 542 363 l 2
 541 363 l 0
 417 363 451 222 321 222 c 0
 320 222 l 2
 181 223 l 2
 106 223 60 278 60 337 c 0
 60 392 105 450 171 450 c 2
 855 449 l 2
 977 449 1064 339 1067 231 c 0
 1067 229 1067 226 1067 224 c 0
 1067 111 978 2 857 1 c 2
 405 -2 l 2
 387 -2 362 -32 362 -49 c 2
 362 -163 l 2
 362 -177 344 -205 332 -211 c 0
 328 -213 323 -214 317 -214 c 0
 301 -214 279 -207 271 -199 c 2
 85 -14 l 2
EndSplineSet
EndChar

StartChar: q
Encoding: 113 113 42
Width: 1133
Flags: HW
LayerCount: 2
Fore
SplineSet
658 87 m 1
 742 87 794 155 794 223 c 0
 794 225 794 227 794 229 c 0
 791 302 733 362 653 362 c 0
 652 362 652 362 651 362 c 2
 464 360 l 2
 386 359 335 292 335 224 c 0
 335 222 335 220 335 218 c 0
 338 148 396 86 475 86 c 2
 658 86 l 1
 658 87 l 1
779 -161 m 2
 779 -175 763 -204 752 -210 c 0
 748 -212 741 -213 734 -213 c 0
 718 -213 698 -209 690 -201 c 2
 488 -2 l 1
 301 -2 l 2
 167 -2 65 90 61 218 c 0
 61 220 61 223 61 225 c 0
 61 345 159 450 288 450 c 2
 838 450 l 2
 969 450 1067 348 1067 225 c 0
 1067 223 1067 220 1067 218 c 0
 1063 94 968 -2 834 -2 c 0
 831 -2 827 -2 824 -2 c 0
 823 -2 l 0
 807 -2 779 -31 779 -47 c 2
 779 -161 l 2
EndSplineSet
EndChar

StartChar: r
Encoding: 114 114 43
Width: 787
Flags: HW
LayerCount: 2
Fore
SplineSet
507 269 m 0
 450 138 322 201 287 169 c 0
 249 135 298 6 171 -1 c 0
 169 -1 167 -1 166 -1 c 0
 114 -1 67 41 67 101 c 2
 67 223 l 2
 67 354 171 450 300 450 c 2
 690 449 l 2
 710 449 737 424 737 407 c 0
 737 313 577 430 507 269 c 0
EndSplineSet
EndChar

StartChar: s
Encoding: 115 115 44
Width: 1126
Flags: HW
LayerCount: 2
Fore
SplineSet
935 -3 m 2
 102 -3 l 2
 87 -3 61 26 61 40 c 0
 61 57 85 84 105 84 c 2
 482 84 l 2
 498 84 528 114 528 131 c 0
 528 150 504 180 484 180 c 2
 183 182 l 2
 110 183 62 254 62 313 c 0
 62 316 62 319 62 322 c 0
 69 402 128 450 206 450 c 2
 683 450 l 2
 700 450 731 424 731 408 c 0
 731 388 706 363 684 363 c 2
 317 364 l 2
 297 364 264 341 264 319 c 0
 264 292 289 268 319 268 c 2
 930 268 l 2
 1010 268 1068 206 1068 132 c 0
 1068 68 1018 -3 935 -3 c 2
EndSplineSet
EndChar

StartChar: t
Encoding: 116 116 45
Width: 791
Flags: HW
LayerCount: 2
Fore
SplineSet
689 362 m 0
 678 363 667 364 657 364 c 0
 485 364 538 177 379 177 c 0
 370 177 360 178 349 179 c 0
 343 180 338 180 333 180 c 0
 225 180 325 5 178 -4 c 0
 176 -4 175 -4 173 -4 c 0
 117 -4 71 43 71 104 c 2
 71 331 l 2
 71 396 94 457 139 502 c 2
 283 646 l 2
 292 655 315 663 330 663 c 0
 333 663 336 663 338 662 c 0
 351 658 374 629 374 615 c 2
 374 503 l 2
 374 479 399 447 424 447 c 2
 702 448 l 2
 718 448 742 417 742 400 c 0
 742 383 709 362 691 362 c 0
 690 362 690 362 689 362 c 0
EndSplineSet
EndChar

StartChar: u
Encoding: 117 117 46
Width: 1140
Flags: HW
LayerCount: 2
Fore
SplineSet
729 82 m 0
 786 83 856 96 862 161 c 0
 874 297 835 445 965 449 c 0
 966 449 967 449 969 449 c 0
 1016 449 1068 412 1068 354 c 2
 1068 219 l 2
 1068 97 966 -3 843 -3 c 2
 274 -2 l 2
 149 -2 61 114 61 223 c 0
 61 346 158 450 296 450 c 2
 686 450 l 2
 701 450 732 423 732 406 c 0
 732 388 706 364 686 364 c 2
 308 363 l 2
 290 363 263 330 263 312 c 0
 263 290 293 267 318 267 c 2
 457 265 l 2
 583 263 534 82 723 82 c 0
 725 82 727 82 729 82 c 0
EndSplineSet
EndChar

StartChar: v
Encoding: 118 118 47
Width: 1148
Flags: HW
LayerCount: 2
Fore
SplineSet
839 110 m 0
 909 161 833 290 946 321 c 0
 956 324 966 325 977 325 c 0
 1018 325 1064 304 1071 256 c 0
 1076 228 1080 191 1080 154 c 0
 1080 77 1060 -1 973 -1 c 2
 312 -1 l 2
 183 -1 71 86 70 222 c 2
 69 396 l 2
 69 408 81 432 88 440 c 0
 93 446 110 450 125 450 c 0
 134 450 144 448 149 445 c 2
 497 243 l 2
 527 225 550 169 569 141 c 0
 599 98 661 83 718 83 c 0
 770 83 819 95 839 110 c 0
EndSplineSet
EndChar

StartChar: w
Encoding: 119 119 48
Width: 1149
Flags: HW
LayerCount: 2
Fore
SplineSet
988 126 m 2
 990 284 l 2
 990 302 1018 327 1034 327 c 0
 1035 327 l 0
 1051 326 1077 300 1077 285 c 2
 1077 98 l 2
 1077 47 1032 -1 978 -1 c 2
 287 0 l 2
 161 0 69 112 69 231 c 2
 69 397 l 2
 69 408 78 429 85 437 c 0
 92 444 115 450 131 450 c 0
 137 450 141 450 144 448 c 2
 492 247 l 2
 524 229 544 182 563 150 c 0
 588 109 640 84 689 84 c 0
 726 84 762 97 786 127 c 0
 804 149 807 182 807 214 c 0
 807 227 806 240 806 252 c 0
 806 293 811 326 849 326 c 0
 875 326 895 300 895 273 c 2
 895 132 l 2
 895 115 923 89 938 86 c 0
 939 86 940 86 941 86 c 0
 957 86 988 109 988 126 c 2
EndSplineSet
EndChar

StartChar: x
Encoding: 120 120 49
Width: 1111
Flags: HW
LayerCount: 2
Fore
SplineSet
903 289 m 2
 900 287 896 287 891 287 c 0
 872 287 844 298 842 310 c 0
 842 312 841 314 841 317 c 0
 841 333 850 360 863 367 c 2
 989 438 l 2
 992 440 998 441 1003 441 c 0
 1019 441 1041 434 1047 427 c 0
 1050 423 1052 416 1052 408 c 0
 1052 392 1046 372 1036 366 c 2
 903 289 l 2
398 -2 m 2
 393 -5 387 -6 380 -6 c 0
 366 -6 350 -1 345 5 c 0
 341 10 338 21 338 32 c 0
 338 47 342 64 351 69 c 2
 559 197 l 1
 467 258 398 301 308 343 c 0
 280 356 245 359 211 359 c 0
 183 359 154 357 129 357 c 0
 87 357 54 363 46 393 c 0
 46 395 45 396 45 398 c 0
 45 417 62 450 96 450 c 0
 167 450 237 453 307 453 c 0
 388 453 469 449 554 433 c 0
 721 402 844 258 997 186 c 0
 1035 168 1054 132 1054 95 c 0
 1054 75 1048 56 1037 39 c 0
 1017 8 988 -6 956 -6 c 0
 934 -6 911 0 889 13 c 2
 656 146 l 1
 398 -2 l 2
EndSplineSet
EndChar

StartChar: y
Encoding: 121 121 50
Width: 1146
Flags: HW
LayerCount: 2
Fore
SplineSet
1078 195 m 0
 1064 -32 1077 16 870 -195 c 0
 860 -205 836 -213 818 -213 c 0
 812 -213 807 -212 803 -210 c 0
 778 -197 774 -167 774 -133 c 0
 774 -118 774 -102 774 -86 c 0
 774 -55 772 -26 756 -3 c 1
 294 0 l 2
 180 1 74 90 72 207 c 2
 69 397 l 2
 69 407 79 430 86 438 c 0
 92 445 112 450 128 450 c 0
 135 450 141 449 145 447 c 2
 485 250 l 2
 565 203 540 83 707 83 c 0
 715 83 724 83 733 84 c 0
 767 86 808 89 837 108 c 0
 859 122 875 168 875 201 c 0
 875 202 875 204 875 206 c 0
 875 210 875 213 875 217 c 0
 875 284 916 325 978 325 c 0
 981 325 983 325 986 325 c 0
 1044 321 1078 271 1078 206 c 0
 1078 202 1078 199 1078 195 c 0
EndSplineSet
EndChar

StartChar: z
Encoding: 122 122 51
Width: 1120
Flags: HW
LayerCount: 2
Fore
SplineSet
1034 -3 m 2
 96 -3 l 2
 84 -3 56 21 56 45 c 0
 56 115 161 41 227 179 c 0
 256 240 306 269 373 269 c 0
 374 269 375 269 376 269 c 2
 479 267 l 2
 497 267 528 293 528 314 c 0
 528 337 502 364 477 364 c 2
 99 364 l 2
 85 364 57 386 57 403 c 0
 57 422 78 450 100 450 c 2
 1026 450 l 2
 1040 450 1064 424 1065 411 c 0
 1065 408 1066 405 1066 403 c 0
 1066 337 958 402 896 273 c 0
 877 234 834 184 788 183 c 2
 647 180 l 2
 624 180 593 159 593 135 c 0
 593 107 621 83 650 83 c 2
 1016 84 l 2
 1033 84 1064 66 1064 48 c 0
 1064 32 1049 -3 1034 -3 c 2
EndSplineSet
EndChar

StartChar: zero
Encoding: 48 48 52
Width: 1148
Flags: HW
LayerCount: 2
Fore
SplineSet
664.028320312 91 m 2
 665.028320312 91 665.028320312 91 666.028320312 91 c 0
 746.028320312 91 806.028320312 156 806.028320312 231 c 2
 807.028320312 408 l 2
 807.028320312 480 753.028320312 548 679.028320312 549 c 2
 493.028320312 551 l 2
 492.028320312 551 492.028320312 551 491.028320312 551 c 0
 409.028320312 551 347.028320312 490 347.028320312 407 c 2
 347.028320312 231 l 2
 347.028320312 158 403.028320312 94 480.028320312 93 c 2
 664.028320312 91 l 2
875.028320312 5 m 1
 305.028320312 4 l 2
 174.028320312 4 70.0283203125 103 72.0283203125 235 c 2
 74.0283203125 426 l 2
 75.0283203125 532 168.028320312 635 279.028320312 635 c 2
 843.028320312 638 l 2
 844.028320312 638 844.028320312 638 845.028320312 638 c 0
 970.028320312 638 1079.02832031 551 1079.02832031 419 c 2
 1079.02832031 220 l 2
 1079.02832031 108 990.028320312 19 875.028320312 5 c 1
EndSplineSet
EndChar

StartChar: one
Encoding: 49 49 53
Width: 490
Flags: HW
LayerCount: 2
Fore
SplineSet
421 114 m 2
 422 46 372 6 320 6 c 0
 264 6 220 46 220 107 c 2
 217 526 l 1
 197 548 171 552 144 552 c 0
 130 552 115 551 101 551 c 0
 75 551 53 555 38 577 c 0
 36 579 36 583 36 587 c 0
 36 605 49 634 63 634 c 2
 189 638 l 1
 195 638 l 2
 315 638 418 545 419 420 c 2
 421 114 l 2
EndSplineSet
EndChar

StartChar: two
Encoding: 50 50 54
Width: 1122
Flags: HW
LayerCount: 2
Fore
SplineSet
1028 92 m 2
 1046 92 1074 65 1074 51 c 0
 1074 36 1048 5 1023 5 c 0
 808 5 544 5 297 5 c 0
 168 5 68 102 65 226 c 0
 65 228 65 230 65 231 c 0
 65 355 166 457 298 457 c 2
 823 457 l 2
 842 457 870 484 870 501 c 0
 870 524 847 551 822 551 c 2
 447 551 l 2
 432 551 403 575 403 592 c 0
 403 609 427 638 446 638 c 2
 961 635 l 2
 1029 635 1072 559 1072 504 c 0
 1072 445 1025 370 947 370 c 2
 322 369 l 2
 294 369 268 345 268 319 c 0
 268 220 432 347 509 178 c 0
 527 139 574 93 620 93 c 2
 1028 92 l 2
EndSplineSet
EndChar

StartChar: three
Encoding: 51 51 55
Width: 1120
Flags: HW
LayerCount: 2
Fore
SplineSet
522 92 m 2
 647 90 l 2
 648 90 648 90 649 90 c 0
 729 90 788 156 788 230 c 0
 788 305 729 368 644 368 c 2
 438 368 l 2
 418 368 393 398 393 413 c 0
 393 431 422 456 442 456 c 2
 620 456 l 2
 637 456 664 486 664 501 c 0
 664 518 639 549 620 549 c 2
 255 550 l 2
 239 550 210 573 210 590 c 0
 210 609 234 635 255 635 c 2
 707 638 l 2
 708 638 708 638 709 638 c 0
 912 638 830 465 904 443 c 0
 1001 414 1063 326 1063 230 c 0
 1063 217 1061 203 1059 190 c 0
 1039 79 951 3 832 3 c 2
 170 4 l 2
 104 4 56 57 56 117 c 0
 56 168 96 229 158 230 c 2
 321 232 l 2
 322 232 323 232 323 232 c 0
 433 232 427 94 522 92 c 2
EndSplineSet
EndChar

StartChar: four
Encoding: 52 52 56
Width: 1191
Flags: HW
LayerCount: 2
Fore
SplineSet
796 206 m 2
 669 206 800 14 634 7 c 0
 632 7 631 7 629 7 c 0
 576 7 531 53 531 114 c 0
 531 119 531 124 532 129 c 0
 532 133 533 136 533 140 c 0
 533 172 517 205 483 205 c 2
 107 205 l 2
 91 205 65 231 63 247 c 0
 63 250 63 252 63 255 c 0
 63 337 225 230 293 388 c 0
 347 512 468 458 515 486 c 0
 553 508 492 664 625 675 c 0
 628 675 631 675 634 675 c 0
 692 675 734 629 734 565 c 2
 733 338 l 2
 733 321 762 294 778 294 c 2
 1095 294 l 2
 1110 294 1136 265 1136 249 c 0
 1136 233 1108 206 1090 206 c 2
 796 206 l 2
EndSplineSet
EndChar

StartChar: five
Encoding: 53 53 57
Width: 1113
Flags: HW
LayerCount: 2
Fore
SplineSet
101 1 m 2
 74 1 49 28 49 44 c 0
 49 65 70 91 105 91 c 2
 470 89 l 2
 471 89 l 0
 651 89 576 272 759 272 c 0
 770 272 782 272 796 270 c 0
 797 270 797 270 798 270 c 0
 818 270 851 295 854 312 c 0
 854 314 855 316 855 318 c 0
 855 344 826 367 794 367 c 2
 175 368 l 2
 100 368 49 440 49 502 c 0
 49 575 106 638 194 638 c 2
 671 637 l 2
 693 637 718 613 718 594 c 0
 718 574 693 548 672 548 c 2
 304 549 l 2
 280 549 251 522 251 503 c 0
 251 486 276 455 295 455 c 2
 832 454 l 2
 961 454 1056 349 1056 229 c 0
 1056 112 961 3 832 3 c 2
 101 1 l 2
EndSplineSet
EndChar

StartChar: six
Encoding: 54 54 58
Width: 1134
Flags: HW
LayerCount: 2
Fore
SplineSet
661 88 m 2
 743 88 804 151 804 225 c 0
 804 304 741 365 665 365 c 2
 479 364 l 2
 402 364 344 297 344 225 c 0
 344 223 344 220 344 218 c 0
 348 148 407 89 485 89 c 2
 661 88 l 2
853 1 m 2
 311 -1 l 2
 310 -1 310 -1 309 -1 c 0
 160 -1 67 108 67 252 c 0
 67 259 68 267 68 274 c 0
 73 354 68 434 128 495 c 2
 275 645 l 2
 285 655 309 662 329 662 c 0
 337 662 345 661 350 658 c 0
 370 646 373 622 373 593 c 0
 373 576 372 557 372 538 c 0
 372 509 375 478 392 454 c 1
 848 452 l 2
 984 451 1077 345 1077 226 c 0
 1077 111 987 1 853 1 c 2
EndSplineSet
EndChar

StartChar: seven
Encoding: 55 55 59
Width: 1110
Flags: HW
LayerCount: 2
Fore
SplineSet
455 100 m 2
 455 313 l 2
 455 336 433 367 407 367 c 2
 99 367 l 2
 81 367 51 394 51 409 c 0
 51 426 78 455 96 455 c 2
 402 454 l 2
 420 454 455 474 455 498 c 0
 455 526 431 549 402 549 c 2
 97 548 l 2
 80 548 51 577 51 593 c 0
 51 609 81 638 97 638 c 2
 437 635 l 2
 544 634 623 562 659 457 c 1
 1013 454 l 2
 1027 454 1061 430 1061 413 c 0
 1061 396 1037 367 1019 367 c 2
 705 367 l 2
 688 367 656 338 656 321 c 2
 657 113 l 2
 657 53 622 10 566 3 c 0
 563 3 559 2 556 2 c 0
 507 2 455 42 455 100 c 2
EndSplineSet
EndChar

StartChar: eight
Encoding: 56 56 60
Width: 1127
Flags: HW
LayerCount: 2
Fore
SplineSet
662 91 m 2
 745 91 797 162 797 230 c 0
 797 300 738 367 662 367 c 2
 474 367 l 2
 395 367 338 301 338 229 c 0
 338 227 338 224 338 222 c 0
 342 151 400 90 478 90 c 2
 662 91 l 2
629 454 m 2
 647 454 672 486 672 505 c 0
 672 523 659 550 584 550 c 0
 547 550 508 544 486 542 c 0
 474 540 462 515 462 498 c 0
 462 495 463 491 464 489 c 0
 471 476 499 453 515 453 c 2
 629 454 l 2
868 5 m 2
 281 3 l 2
 167 3 78 97 66 195 c 0
 65 206 64 217 64 227 c 0
 64 328 124 413 227 445 c 0
 290 464 228 638 405 638 c 2
 740 636 l 2
 901 635 847 463 906 445 c 0
 1008 414 1070 331 1070 229 c 0
 1070 221 1070 214 1069 206 c 0
 1061 115 984 5 868 5 c 2
EndSplineSet
EndChar

StartChar: nine
Encoding: 57 57 61
Width: 1125
Flags: HW
LayerCount: 2
Fore
SplineSet
662 299 m 0
 740 304 787 373 787 436 c 0
 787 438 787 441 787 443 c 0
 783 507 730 573 655 573 c 0
 654 573 654 573 653 573 c 2
 452 571 l 2
 377 570 329 500 329 435 c 0
 329 301 462 293 538 293 c 0
 580 293 623 297 662 299 c 0
860 19 m 1
 849 7 824 -2 805 -2 c 0
 797 -2 791 0 786 3 c 0
 762 19 758 47 758 78 c 0
 758 94 759 111 759 128 c 0
 759 155 756 183 742 208 c 1
 277 210 l 2
 150 211 57 313 54 432 c 0
 54 434 54 436 54 437 c 0
 54 553 149 661 277 661 c 2
 826 662 l 2
 972 662 1065 550 1065 412 c 0
 1065 404 1065 395 1064 387 c 0
 1058 314 1067 234 1013 178 c 2
 861 19 l 1
 860 19 l 1
EndSplineSet
EndChar
